ffmpeg started on 2016-12-07 at 16:53:40
Report written to "Output/x264/results/ffmpeg/crowd_run_2160p50slow14000k.log"
Command line:
Tools/ffmpeg/ffmpeg -benchmark -y -i Input/y4m/crowd_run_2160p50.y4m -c:v libx264 -preset slow -b:v 14000k -an Output/x264/encoded/crowd_run_2160p50slow14000k.mkv
ffmpeg version N-82227-gdb23fde Copyright (c) 2000-2016 the FFmpeg developers
  built with gcc 5.4.0 (Ubuntu 5.4.0-6ubuntu1~16.04.2) 20160609
  configuration: --prefix=/home/jaroslav/ffmpeg_build --pkg-config-flags=--static --extra-cflags=-I/home/jaroslav/ffmpeg_build/include --extra-ldflags=-L/home/jaroslav/ffmpeg_build/lib --bindir=/home/jaroslav/bin --enable-gpl --enable-libass --enable-libfdk-aac --enable-libfreetype --enable-libmp3lame --enable-libopus --enable-libtheora --enable-libvorbis --enable-libvpx --enable-libx264 --enable-libx265 --enable-nvenc --enable-libmfx --enable-libxvid --enable-libgsm --enable-libopencore-amrnb --enable-version3 --enable-nonfree
  libavutil      55. 35.100 / 55. 35.100
  libavcodec     57. 66.101 / 57. 66.101
  libavformat    57. 57.100 / 57. 57.100
  libavdevice    57.  2.100 / 57.  2.100
  libavfilter     6. 66.100 /  6. 66.100
  libswscale      4.  3.100 /  4.  3.100
  libswresample   2.  4.100 /  2.  4.100
  libpostproc    54.  2.100 / 54.  2.100
Input #0, yuv4mpegpipe, from 'Input/y4m/crowd_run_2160p50.y4m':
  Duration: 00:00:10.00, start: 0.000000, bitrate: 4976642 kb/s
    Stream #0:0: Video: rawvideo (I420 / 0x30323449), yuv420p(progressive), 3840x2160, SAR 1:1 DAR 16:9, 50 fps, 50 tbr, 50 tbn, 50 tbc
[libx264 @ 0x2b011c0] using SAR=1/1
[libx264 @ 0x2b011c0] using cpu capabilities: MMX2 SSE2Fast SSSE3 SSE4.2 AVX FMA3 AVX2 LZCNT BMI2
[libx264 @ 0x2b011c0] profile High, level 5.2
[libx264 @ 0x2b011c0] 264 - core 148 - H.264/MPEG-4 AVC codec - Copyleft 2003-2016 - http://www.videolan.org/x264.html - options: cabac=1 ref=5 deblock=1:0:0 analyse=0x3:0x113 me=hex subme=8 psy=1 psy_rd=1.00:0.00 mixed_ref=1 me_range=16 chroma_me=1 trellis=2 8x8dct=1 cqm=0 deadzone=21,11 fast_pskip=1 chroma_qp_offset=-2 threads=6 lookahead_threads=1 sliced_threads=0 nr=0 decimate=1 interlaced=0 bluray_compat=0 constrained_intra=0 bframes=3 b_pyramid=2 b_adapt=1 b_bias=0 direct=3 weightb=1 open_gop=0 weightp=2 keyint=250 keyint_min=25 scenecut=40 intra_refresh=0 rc_lookahead=50 rc=abr mbtree=1 bitrate=14000 ratetol=1.0 qcomp=0.60 qpmin=0 qpmax=69 qpstep=4 ip_ratio=1.40 aq=1:1.00
Output #0, matroska, to 'Output/x264/encoded/crowd_run_2160p50slow14000k.mkv':
  Metadata:
    encoder         : Lavf57.57.100
    Stream #0:0: Video: h264 (libx264) (H264 / 0x34363248), yuv420p, 3840x2160 [SAR 1:1 DAR 16:9], q=-1--1, 14000 kb/s, 50 fps, 1k tbn, 50 tbc
    Metadata:
      encoder         : Lavc57.66.101 libx264
    Side data:
      cpb: bitrate max/min/avg: 0/0/14000000 buffer size: 0 vbv_delay: -1
Stream mapping:
  Stream #0:0 -> #0:0 (rawvideo (native) -> h264 (libx264))
Press [q] to stop, [?] for help
frame=   19 fps=0.0 q=0.0 size=       0kB time=00:00:00.00 bitrate=N/A speed=   0x    frame=   34 fps= 33 q=0.0 size=       0kB time=00:00:00.00 bitrate=N/A speed=   0x    frame=   49 fps= 32 q=0.0 size=       0kB time=00:00:00.00 bitrate=N/A speed=   0x    frame=   57 fps= 13 q=0.0 size=       0kB time=00:00:00.00 bitrate=N/A speed=   0x    frame=   62 fps= 11 q=32.0 size=       1kB time=-00:00:00.01 bitrate=N/A speed=N/A    frame=   63 fps=9.8 q=31.0 size=       1kB time=00:00:00.00 bitrate=5872.0kbits/s speed=0.000156x    frame=   67 fps=9.7 q=34.0 size=       1kB time=00:00:00.08 bitrate=  72.5kbits/s speed=0.0117x    frame=   69 fps=9.2 q=48.0 size=       1kB time=00:00:00.12 bitrate=  48.5kbits/s speed=0.0161x    frame=   75 fps=9.3 q=49.0 size=       1kB time=00:00:00.24 bitrate=  24.4kbits/s speed=0.03x    frame=   79 fps=9.1 q=49.0 size=       1kB time=00:00:00.32 bitrate=  18.3kbits/s speed=0.037x    frame=   86 fps=9.3 q=47.0 size=       1kB time=00:00:00.46 bitrate=  12.7kbits/s speed=0.0501x    frame=   91 fps=9.1 q=47.0 size=       1kB time=00:00:00.56 bitrate=  10.5kbits/s speed=0.056x    frame=   98 fps=9.3 q=46.0 size=       1kB time=00:00:00.70 bitrate=   8.4kbits/s speed=0.0666x    frame=  101 fps=9.1 q=46.0 size=       1kB time=00:00:00.76 bitrate=   7.7kbits/s speed=0.0689x    frame=  107 fps=9.1 q=46.0 size=       1kB time=00:00:00.88 bitrate=   6.7kbits/s speed=0.0746x    frame=  111 fps=9.0 q=46.0 size=       1kB time=00:00:00.96 bitrate=   6.1kbits/s speed=0.0779x    frame=  115 fps=8.9 q=45.0 size=       1kB time=00:00:01.04 bitrate=   5.6kbits/s speed=0.0809x    frame=  120 fps=9.0 q=45.0 size=       1kB time=00:00:01.14 bitrate=   5.1kbits/s speed=0.0853x    frame=  123 fps=8.8 q=45.0 size=       1kB time=00:00:01.20 bitrate=   4.9kbits/s speed=0.0864x    frame=  129 fps=8.9 q=45.0 size=       1kB time=00:00:01.32 bitrate=   4.4kbits/s speed=0.0916x    frame=  131 fps=8.7 q=45.0 size=       1kB time=00:00:01.36 bitrate=   4.3kbits/s speed=0.0906x    frame=  137 fps=8.8 q=44.0 size=       1kB time=00:00:01.48 bitrate=   4.0kbits/s speed=0.0953x    frame=  139 fps=8.7 q=44.0 size=       1kB time=00:00:01.52 bitrate=   3.9kbits/s speed=0.0947x    frame=  146 fps=8.8 q=44.0 size=       1kB time=00:00:01.66 bitrate=   3.5kbits/s speed= 0.1x    frame=  147 fps=8.6 q=44.0 size=       1kB time=00:00:01.68 bitrate=   3.5kbits/s speed=0.0984x    frame=  155 fps=8.5 q=44.0 size=       1kB time=00:00:01.84 bitrate=   3.2kbits/s speed=0.101x    frame=  161 fps=8.6 q=44.0 size=       1kB time=00:00:01.96 bitrate=   3.0kbits/s speed=0.105x    frame=  164 fps=8.5 q=44.0 size=       1kB time=00:00:02.02 bitrate=   2.9kbits/s speed=0.105x    frame=  169 fps=8.5 q=44.0 size=       1kB time=00:00:02.12 bitrate=   2.8kbits/s speed=0.107x    frame=  171 fps=8.4 q=44.0 size=       1kB time=00:00:02.16 bitrate=   2.7kbits/s speed=0.106x    frame=  177 fps=8.5 q=43.0 size=       1kB time=00:00:02.28 bitrate=   2.6kbits/s speed=0.109x    frame=  180 fps=8.4 q=43.0 size=       1kB time=00:00:02.34 bitrate=   2.5kbits/s speed=0.109x    frame=  185 fps=8.4 q=43.0 size=       1kB time=00:00:02.44 bitrate=   2.4kbits/s speed=0.111x    frame=  187 fps=8.3 q=43.0 size=       1kB time=00:00:02.48 bitrate=   2.4kbits/s speed=0.11x    frame=  193 fps=8.4 q=43.0 size=       1kB time=00:00:02.60 bitrate=   2.3kbits/s speed=0.113x    frame=  196 fps=8.3 q=43.0 size=    5180kB time=00:00:02.66 bitrate=15948.0kbits/s speed=0.113x    frame=  201 fps=8.3 q=43.0 size=    5180kB time=00:00:02.76 bitrate=15370.4kbits/s speed=0.114x    frame=  203 fps=8.2 q=43.0 size=    5180kB time=00:00:02.80 bitrate=15150.9kbits/s speed=0.113x    frame=  209 fps=8.3 q=43.0 size=    5180kB time=00:00:02.92 bitrate=14528.5kbits/s speed=0.116x    frame=  211 fps=8.2 q=43.0 size=    5180kB time=00:00:02.96 bitrate=14332.2kbits/s speed=0.115x    frame=  218 fps=8.3 q=43.0 size=    5180kB time=00:00:03.10 bitrate=13685.1kbits/s speed=0.118x    frame=  219 fps=8.1 q=43.0 size=    5180kB time=00:00:03.12 bitrate=13597.4kbits/s speed=0.116x    frame=  226 fps=8.2 q=43.0 size=    5180kB time=00:00:03.26 bitrate=13013.7kbits/s speed=0.118x    frame=  227 fps=8.1 q=43.0 size=    5180kB time=00:00:03.28 bitrate=12934.4kbits/s speed=0.117x    frame=  233 fps=8.1 q=43.0 size=    5180kB time=00:00:03.40 bitrate=12478.0kbits/s speed=0.119x    frame=  235 fps=8.0 q=43.0 size=    5180kB time=00:00:03.44 bitrate=12332.9kbits/s speed=0.118x    frame=  241 fps=8.1 q=43.0 size=    5180kB time=00:00:03.56 bitrate=11917.3kbits/s speed=0.12x    frame=  243 fps=8.0 q=43.0 size=    5180kB time=00:00:03.60 bitrate=11785.0kbits/s speed=0.119x    frame=  249 fps=8.0 q=43.0 size=    5180kB time=00:00:03.72 bitrate=11404.9kbits/s speed=0.12x    frame=  253 fps=8.0 q=43.0 size=    5180kB time=00:00:03.80 bitrate=11164.9kbits/s speed=0.121x    frame=  256 fps=8.0 q=43.0 size=    5180kB time=00:00:03.86 bitrate=10991.4kbits/s speed=0.12x    frame=  262 fps=8.0 q=43.0 size=    5180kB time=00:00:03.98 bitrate=10660.0kbits/s speed=0.122x    frame=  263 fps=7.9 q=43.0 size=    5180kB time=00:00:04.00 bitrate=10606.8kbits/s speed=0.121x    frame=  268 fps=8.0 q=43.0 size=    5180kB time=00:00:04.10 bitrate=10348.1kbits/s speed=0.122x    frame=  271 fps=7.9 q=43.0 size=    5180kB time=00:00:04.16 bitrate=10198.9kbits/s speed=0.121x    frame=  277 fps=8.0 q=43.0 size=    5180kB time=00:00:04.28 bitrate=9913.0kbits/s speed=0.123x    frame=  279 fps=7.9 q=43.0 size=    5180kB time=00:00:04.32 bitrate=9821.3kbits/s speed=0.122x    frame=  284 fps=7.9 q=43.0 size=    5180kB time=00:00:04.42 bitrate=9599.1kbits/s speed=0.123x    frame=  287 fps=7.9 q=43.0 size=    5180kB time=00:00:04.48 bitrate=9470.6kbits/s speed=0.123x    frame=  291 fps=7.9 q=43.0 size=    5180kB time=00:00:04.56 bitrate=9304.5kbits/s speed=0.123x    frame=  295 fps=7.8 q=43.0 size=    5180kB time=00:00:04.64 bitrate=9144.1kbits/s speed=0.123x    frame=  301 fps=7.9 q=43.0 size=    5180kB time=00:00:04.76 bitrate=8913.6kbits/s speed=0.124x    frame=  303 fps=7.8 q=43.0 size=    5180kB time=00:00:04.80 bitrate=8839.3kbits/s speed=0.123x    frame=  306 fps=7.7 q=40.0 size=    5180kB time=00:00:04.86 bitrate=8730.2kbits/s speed=0.122x    frame=  312 fps=7.7 q=43.0 size=    8807kB time=00:00:04.98 bitrate=14485.0kbits/s speed=0.123x    frame=  317 fps=7.7 q=43.0 size=    8807kB time=00:00:05.08 bitrate=14199.9kbits/s speed=0.123x    frame=  321 fps=7.7 q=43.0 size=    8807kB time=00:00:05.16 bitrate=13979.8kbits/s speed=0.123x    frame=  326 fps=7.7 q=43.0 size=    8807kB time=00:00:05.26 bitrate=13714.1kbits/s speed=0.124x    frame=  329 fps=7.6 q=43.0 size=    8807kB time=00:00:05.32 bitrate=13559.5kbits/s speed=0.124x    frame=  335 fps=7.7 q=43.0 size=    8807kB time=00:00:05.44 bitrate=13260.4kbits/s speed=0.125x    frame=  337 fps=7.6 q=43.0 size=    8807kB time=00:00:05.48 bitrate=13163.6kbits/s speed=0.124x    frame=  343 fps=7.7 q=43.0 size=    8807kB time=00:00:05.60 bitrate=12881.6kbits/s speed=0.125x    frame=  345 fps=7.6 q=43.0 size=    8807kB time=00:00:05.64 bitrate=12790.3kbits/s speed=0.124x    frame=  352 fps=7.7 q=43.0 size=    8807kB time=00:00:05.78 bitrate=12480.5kbits/s speed=0.126x    frame=  353 fps=7.6 q=43.0 size=    8807kB time=00:00:05.80 bitrate=12437.5kbits/s speed=0.125x    frame=  359 fps=7.6 q=43.0 size=    8807kB time=00:00:05.92 bitrate=12185.4kbits/s speed=0.126x    frame=  361 fps=7.6 q=43.0 size=    8807kB time=00:00:05.96 bitrate=12103.7kbits/s speed=0.125x    frame=  365 fps=7.6 q=43.0 size=    8807kB time=00:00:06.04 bitrate=11943.4kbits/s speed=0.126x    frame=  369 fps=7.6 q=43.0 size=    8807kB time=00:00:06.12 bitrate=11787.3kbits/s speed=0.126x    frame=  374 fps=7.6 q=43.0 size=    8807kB time=00:00:06.22 bitrate=11597.8kbits/s speed=0.126x    frame=  377 fps=7.6 q=43.0 size=    8807kB time=00:00:06.28 bitrate=11487.0kbits/s speed=0.126x    frame=  384 fps=7.6 q=43.0 size=    8807kB time=00:00:06.42 bitrate=11236.6kbits/s speed=0.127x    frame=  385 fps=7.5 q=43.0 size=    8807kB time=00:00:06.44 bitrate=11201.7kbits/s speed=0.126x    frame=  392 fps=7.6 q=43.0 size=    8807kB time=00:00:06.58 bitrate=10963.4kbits/s speed=0.127x    frame=  394 fps=7.5 q=43.0 size=    8807kB time=00:00:06.62 bitrate=10897.1kbits/s speed=0.127x    frame=  400 fps=7.6 q=43.0 size=    8807kB time=00:00:06.74 bitrate=10703.2kbits/s speed=0.128x    frame=  401 fps=7.5 q=43.0 size=    8807kB time=00:00:06.76 bitrate=10671.5kbits/s speed=0.127x    frame=  407 fps=7.6 q=43.0 size=    8807kB time=00:00:06.88 bitrate=10485.4kbits/s speed=0.128x    frame=  409 fps=7.5 q=43.0 size=    8807kB time=00:00:06.92 bitrate=10424.8kbits/s speed=0.127x    frame=  413 fps=7.5 q=42.0 size=    8807kB time=00:00:07.00 bitrate=10305.7kbits/s speed=0.127x    frame=  419 fps=7.5 q=42.0 size=    8807kB time=00:00:07.12 bitrate=10132.0kbits/s speed=0.128x    frame=  421 fps=7.5 q=42.0 size=    8807kB time=00:00:07.16 bitrate=10075.4kbits/s speed=0.127x    frame=  427 fps=7.5 q=42.0 size=    8807kB time=00:00:07.28 bitrate=9909.3kbits/s speed=0.128x    frame=  432 fps=7.5 q=42.0 size=    8807kB time=00:00:07.38 bitrate=9775.1kbits/s speed=0.128x    frame=  434 fps=7.5 q=42.0 size=    8807kB time=00:00:07.42 bitrate=9722.4kbits/s speed=0.128x    frame=  439 fps=7.5 q=42.0 size=    8807kB time=00:00:07.52 bitrate=9593.1kbits/s speed=0.128x    frame=  441 fps=7.4 q=42.0 size=    8807kB time=00:00:07.56 bitrate=9542.4kbits/s speed=0.128x    frame=  446 fps=7.5 q=42.0 size=    8807kB time=00:00:07.66 bitrate=9417.8kbits/s speed=0.128x    frame=  449 fps=7.4 q=42.0 size=    8807kB time=00:00:07.72 bitrate=9344.6kbits/s speed=0.128x    frame=  455 fps=7.5 q=42.0 size=    8807kB time=00:00:07.84 bitrate=9201.6kbits/s speed=0.129x    frame=  457 fps=7.4 q=42.0 size=    8807kB time=00:00:07.88 bitrate=9154.9kbits/s speed=0.128x    frame=  462 fps=7.4 q=42.0 size=    8807kB time=00:00:07.98 bitrate=9040.2kbits/s speed=0.129x    frame=  465 fps=7.4 q=42.0 size=   13969kB time=00:00:08.04 bitrate=14230.9kbits/s speed=0.128x    frame=  471 fps=7.5 q=42.0 size=   13969kB time=00:00:08.16 bitrate=14021.6kbits/s speed=0.129x    frame=  473 fps=7.4 q=42.0 size=   13969kB time=00:00:08.20 bitrate=13953.3kbits/s speed=0.129x    frame=  478 fps=7.4 q=42.0 size=   13969kB time=00:00:08.30 bitrate=13785.2kbits/s speed=0.129x    frame=  481 fps=7.4 q=42.0 size=   13969kB time=00:00:08.36 bitrate=13686.2kbits/s speed=0.129x    frame=  486 fps=7.4 q=42.0 size=   13969kB time=00:00:08.46 bitrate=13524.5kbits/s speed=0.129x    frame=  489 fps=7.4 q=42.0 size=   13969kB time=00:00:08.52 bitrate=13429.3kbits/s speed=0.129x    frame=  493 fps=7.4 q=42.0 size=   13969kB time=00:00:08.60 bitrate=13304.3kbits/s speed=0.129x    frame=  497 fps=7.4 q=42.0 size=   13969kB time=00:00:08.68 bitrate=13181.7kbits/s speed=0.129x    frame=  500 fps=6.7 q=-1.0 Lsize=   16979kB time=00:00:09.94 bitrate=13991.4kbits/s speed=0.133x    
video:16974kB audio:0kB subtitle:0kB other streams:0kB global headers:0kB muxing overhead: 0.027178%
bench: utime=265.464s
bench: maxrss=2209108kB
[libx264 @ 0x2b011c0] frame I:2     Avg QP:32.28  size:561918
[libx264 @ 0x2b011c0] frame P:126   Avg QP:41.66  size: 68037
[libx264 @ 0x2b011c0] frame B:372   Avg QP:44.82  size: 20656
[libx264 @ 0x2b011c0] consecutive B-frames:  0.8%  0.0%  0.0% 99.2%
[libx264 @ 0x2b011c0] mb I  I16..4: 13.1% 77.6%  9.3%
[libx264 @ 0x2b011c0] mb P  I16..4:  1.8%  4.5%  0.1%  P16..4: 36.6%  6.7%  5.5%  0.0%  0.0%    skip:44.9%
[libx264 @ 0x2b011c0] mb B  I16..4:  0.0%  0.1%  0.0%  B16..8: 42.8%  1.8%  0.1%  direct: 0.3%  skip:54.7%  L0:42.2% L1:56.9% BI: 0.8%
[libx264 @ 0x2b011c0] final ratefactor: 34.29
[libx264 @ 0x2b011c0] 8x8 transform intra:72.4% inter:85.9%
[libx264 @ 0x2b011c0] direct mvs  spatial:98.9% temporal:1.1%
[libx264 @ 0x2b011c0] coded y,uvDC,uvAC intra: 40.6% 55.7% 21.2% inter: 3.7% 6.0% 0.1%
[libx264 @ 0x2b011c0] i16 v,h,dc,p: 36% 21%  6% 37%
[libx264 @ 0x2b011c0] i8 v,h,dc,ddl,ddr,vr,hd,vl,hu:  8%  4%  5% 12% 16% 16% 15% 13% 11%
[libx264 @ 0x2b011c0] i4 v,h,dc,ddl,ddr,vr,hd,vl,hu:  6%  4%  2% 13% 17% 15% 16% 12% 15%
[libx264 @ 0x2b011c0] i8c dc,h,v,p: 46% 18% 18% 18%
[libx264 @ 0x2b011c0] Weighted P-Frames: Y:1.6% UV:0.8%
[libx264 @ 0x2b011c0] ref P L0: 65.7%  8.5% 15.8%  4.8%  5.2%  0.1%
[libx264 @ 0x2b011c0] ref B L0: 92.3%  5.8%  1.4%  0.5%
[libx264 @ 0x2b011c0] ref B L1: 98.4%  1.6%
[libx264 @ 0x2b011c0] kb/s:13904.56
